<svg aria-hidden="true" role="none" xmlns="http://www.w3.org/2000/svg" id="hue-web-icons-sprite" style="display: none;">
    <svg xmlns="http://www.w3.org/2000/svg" viewBox="0 0 16 16" id="overflow-web-ios-small" data-supported-dps="16x16" fill="currentColor">
  <path d="M3 9.5A1.5 1.5 0 114.5 8 1.5 1.5 0 013 9.5zM11.5 8A1.5 1.5 0 1013 6.5 1.5 1.5 0 0011.5 8zm-5 0A1.5 1.5 0 108 6.5 1.5 1.5 0 006.5 8z"/>
</svg>

    <svg xmlns="http://www.w3.org/2000/svg" viewBox="0 0 16 16" id="caret-small" data-supported-dps="16x16" fill="currentColor">
  <path d="M8 11L3 6h10z" fill-rule="evenodd"/>
</svg>

    <svg xmlns="http://www.w3.org/2000/svg" viewBox="0 0 24 24" id="thumbs-up-outline-medium" data-supported-dps="24x24" fill="currentColor">
  <path d="M19.46 11l-3.91-3.91a7 7 0 01-1.69-2.74l-.49-1.47A2.76 2.76 0 0010.76 1 2.75 2.75 0 008 3.74v1.12a9.19 9.19 0 00.46 2.85L8.89 9H4.12A2.12 2.12 0 002 11.12a2.16 2.16 0 00.92 1.76A2.11 2.11 0 002 14.62a2.14 2.14 0 001.28 2 2 2 0 00-.28 1 2.12 2.12 0 002 2.12v.14A2.12 2.12 0 007.12 22h7.49a8.08 8.08 0 003.58-.84l.31-.16H21V11zM19 19h-1l-.73.37a6.14 6.14 0 01-2.69.63H7.72a1 1 0 01-1-.72l-.25-.87-.85-.41A1 1 0 015 17l.17-1-.76-.74A1 1 0 014.27 14l.66-1.09-.73-1.1a.49.49 0 01.08-.7.48.48 0 01.34-.11h7.05l-1.31-3.92A7 7 0 0110 4.86V3.75a.77.77 0 01.75-.75.75.75 0 01.71.51L12 5a9 9 0 002.13 3.5l4.5 4.5H19z"/>
</svg>

    <svg xmlns="http://www.w3.org/2000/svg" viewBox="0 0 24 24" id="repost-medium" data-supported-dps="24x24" fill="currentColor">
  <path d="M13.96 5H6c-.55 0-1 .45-1 1v10H3V6c0-1.66 1.34-3 3-3h7.96L12 0h2.37L17 4l-2.63 4H12l1.96-3zm5.54 3H19v10c0 .55-.45 1-1 1h-7.96L12 16H9.63L7 20l2.63 4H12l-1.96-3H18c1.66 0 3-1.34 3-3V8h-1.5z"/>
</svg>

    <svg xmlns="http://www.w3.org/2000/svg" viewBox="0 0 16 16" id="bookmark-fill-small" data-supported-dps="16x16" fill="currentColor">
  <path d="M13 4a3 3 0 00-3-3H3v14l5-4.5 5 4.5z"/>
</svg>

    <svg xmlns="http://www.w3.org/2000/svg" viewBox="0 0 16 16" id="add-small" data-supported-dps="16x16" fill="currentColor">
  <path d="M14 9H9v5H7V9H2V7h5V2h2v5h5z"/>
</svg>

</svg>