<svg xmlns="http://www.w3.org/2000/svg" viewBox="0 0 16 16" data-supported-dps="16x16" fill="currentColor" class="mercado-match" width="16" height="16" focusable="false">
  <path d="M11 7H9.12l-1-1H11zm4 7.29l-.71.71-1.85-1.86L8 16v-3H5.5A5.51 5.51 0 010 7.5a5.42 5.42 0 012.36-4.43L1 1.71 1.71 1zM10.29 11l-2-2H5V8h2.29l-1-1H5V6h.29L3.81 4.52A3.47 3.47 0 002 7.5 3.53 3.53 0 005.5 11zm.21-9H5.74a6.17 6.17 0 00-1.44.18L6.12 4h4.38A3.5 3.5 0 0114 7.5v.08a4 4 0 01-1.33 3L14.08 12A6 6 0 0016 7.58V7.5A5.5 5.5 0 0010.5 2z"/>
</svg>